<svg id="Capa_1" data-name="Capa 1" xmlns="http://www.w3.org/2000/svg" viewBox="0 0 501.48 509.44"><defs><style>.cls-1{fill:#dccdd4;}.cls-2,.cls-4{fill:#546370;}.cls-2{stroke:#546370;stroke-width:2px;}.cls-2,.cls-3{stroke-miterlimit:10;}.cls-3{font-size:40.53px;fill:#6d6d6f;stroke:#6d6d6f;stroke-width:0.2px;font-family:Kiona-Regular, Kiona;}</style></defs><rect class="cls-1" width="501.48" height="509.44"/><path class="cls-2" d="M261.15,346.28a90.73,90.73,0,0,1-47-12.83,94.91,94.91,0,0,1-46.76-82.12A92.87,92.87,0,0,1,179.88,204a94.65,94.65,0,0,1,34.22-34.5,92.32,92.32,0,0,1,84.83-4.7,96.91,96.91,0,0,1,31.8,23l-10,8.84a80.67,80.67,0,0,0-26.94-20,79.33,79.33,0,0,0-73.14,3.85,82,82,0,0,0-29.51,29.8,82.26,82.26,0,0,0,0,82.12,82.1,82.1,0,0,0,29.51,29.8,79.75,79.75,0,0,0,75.14,3,82.89,82.89,0,0,0,28.08-22.24l10.27,8A93,93,0,0,1,301.64,337,91.57,91.57,0,0,1,261.15,346.28Z"/><text class="cls-3" transform="matrix(0.89, -0.45, 0.45, 0.89, 161.51, 115.24)">M</text><text class="cls-3" transform="matrix(0.94, -0.33, 0.33, 0.94, 191.73, 100.87)">I</text><text class="cls-3" transform="translate(200.22 97.82) rotate(-15.48)"> </text><text class="cls-3" transform="matrix(0.99, -0.15, 0.15, 0.99, 211.69, 94.12)">C</text><text class="cls-3" transform="matrix(1, -0.05, 0.05, 1, 237.98, 90.48)">I</text><text class="cls-3" transform="translate(246.76 89.55) rotate(3.34)">U</text><text class="cls-3" transform="translate(272.59 90.97) rotate(12.1)">D</text><text class="cls-3" transform="translate(294.92 95.43) rotate(20.4)">A</text><text class="cls-3" transform="matrix(0.87, 0.49, -0.49, 0.87, 319.79, 104.62)">D</text><text class="cls-3" transform="matrix(0.79, 0.61, -0.61, 0.79, 339.79, 115.49)">A</text><text class="cls-3" transform="matrix(0.69, 0.73, -0.73, 0.69, 360.86, 131.55)">N</text><text class="cls-3" transform="translate(378.76 151.05) rotate(52.73)">I</text><text class="cls-3" transform="matrix(0.52, 0.86, -0.86, 0.52, 384.54, 157.71)">A</text><text class="cls-3" transform="translate(398.03 180.74) rotate(65.64)"> </text><text class="cls-3" transform="matrix(0.31, 0.95, -0.95, 0.31, 403.35, 191.58)">E</text><text class="cls-3" transform="matrix(0.17, 0.99, -0.99, 0.17, 410.68, 213.09)">U</text><text class="cls-3" transform="translate(415.09 238.61) rotate(88.78)">R</text><text class="cls-3" transform="translate(415.96 261.61) rotate(97.64)">O</text><text class="cls-3" transform="matrix(-0.29, 0.96, -0.96, -0.29, 411.94, 290.51)">P</text><text class="cls-3" transform="translate(405.59 312.13) rotate(114.61)">E</text><text class="cls-3" transform="translate(396.34 332.95) rotate(123.19)">A</text><text class="cls-3" transform="matrix(-0.64, 0.77, -0.77, -0.64, 381.44, 355.1)"> </text><text class="cls-3" transform="translate(373.61 364.53) rotate(134.14)"> </text><text class="cls-3" transform="matrix(-0.75, 0.66, -0.66, -0.75, 365.1, 373.37)"> </text><text class="cls-3" transform="matrix(-0.79, 0.61, -0.61, -0.79, 355.96, 381.55)"> </text><text class="cls-3" transform="translate(346.27 389.01) rotate(146.86)"> </text><text class="cls-3" transform="translate(336.7 396.24) rotate(154.69)">M</text><text class="cls-3" transform="matrix(-0.95, 0.31, -0.31, -0.95, 306.17, 409.89)">I</text><text class="cls-3" transform="matrix(-0.97, 0.24, -0.24, -0.97, 297.61, 412.75)"> </text><text class="cls-3" transform="translate(286.05 416.17) rotate(172.55)">C</text><text class="cls-3" transform="translate(259.68 419.21) rotate(178.68)">I</text><text class="cls-3" transform="translate(250.87 419.94) rotate(-175.33)">U</text><text class="cls-3" transform="matrix(-0.97, -0.23, 0.23, -0.97, 225.09, 417.91)">D</text><text class="cls-3" transform="matrix(-0.93, -0.37, 0.37, -0.93, 202.87, 412.93)">A</text><text class="cls-3" transform="translate(178.26 403.18) rotate(-149.36)">D</text><text class="cls-3" transform="translate(158.49 391.84) rotate(-141.14)">A</text><text class="cls-3" transform="matrix(-0.67, -0.74, 0.74, -0.67, 137.79, 375.3)">N</text><text class="cls-3" transform="translate(120.36 355.41) rotate(-125.95)">I</text><text class="cls-3" transform="translate(114.73 348.6) rotate(-119.78)">A</text><text class="cls-3" transform="translate(101.78 325.29) rotate(-113.04)"> </text><text class="cls-3" transform="translate(96.71 314.29) rotate(-106.89)">E</text><text class="cls-3" transform="translate(89.88 292.61) rotate(-98.41)">U</text><text class="cls-3" transform="translate(85.89 267.01) rotate(-89.07)">R</text><text class="cls-3" transform="matrix(0.16, -0.99, 0.99, 0.16, 85.72, 244)">O</text><text class="cls-3" transform="translate(90.4 215.2) rotate(-71.98)">P</text><text class="cls-3" transform="matrix(0.44, -0.9, 0.9, 0.44, 97.27, 193.71)">E</text><text class="cls-3" transform="translate(107 173.14) rotate(-55.49)">A</text><text class="cls-3" transform="translate(122.42 151.33) rotate(-48.78)"> </text><circle class="cls-4" cx="130.81" cy="118.49" r="9.34"/><circle class="cls-4" cx="367.6" cy="386.05" r="9.34"/></svg>