<svg id="Capa_1" data-name="Capa 1" xmlns="http://www.w3.org/2000/svg" viewBox="0 0 501.48 509.44"><defs><style>.cls-1{fill:#546370;}.cls-2,.cls-3{fill:#f7f6f8;}.cls-3{font-size:40.53px;font-family:Kiona-Regular, Kiona;}.cls-4{fill:#decbc6;}</style></defs><rect class="cls-1" width="501.48" height="511.81"/><path class="cls-2" d="M269.75,346.28a90.7,90.7,0,0,1-47-12.83,95,95,0,0,1-46.77-82.12A92.78,92.78,0,0,1,188.49,204a94.57,94.57,0,0,1,34.22-34.5,92.32,92.32,0,0,1,84.83-4.7,96.87,96.87,0,0,1,31.79,23l-10,8.84a80.81,80.81,0,0,0-27-20,79.33,79.33,0,0,0-73.14,3.85,82.1,82.1,0,0,0-29.51,29.8,82.26,82.26,0,0,0,0,82.12,82.18,82.18,0,0,0,29.51,29.8,79.75,79.75,0,0,0,75.14,3,82.83,82.83,0,0,0,28.09-22.24l10.26,8A92.93,92.93,0,0,1,310.25,337,91.62,91.62,0,0,1,269.75,346.28Z"/><text class="cls-3" transform="matrix(0.89, -0.45, 0.45, 0.89, 170.12, 115.24)">M</text><text class="cls-3" transform="matrix(0.94, -0.33, 0.33, 0.94, 200.33, 100.87)">I</text><text class="cls-3" transform="translate(208.82 97.82) rotate(-15.48)"> </text><text class="cls-3" transform="matrix(0.99, -0.15, 0.15, 0.99, 220.3, 94.12)">C</text><text class="cls-3" transform="matrix(1, -0.05, 0.05, 1, 246.58, 90.48)">I</text><text class="cls-3" transform="translate(255.36 89.55) rotate(3.34)">U</text><text class="cls-3" transform="translate(281.19 90.97) rotate(12.1)">D</text><text class="cls-3" transform="translate(303.52 95.43) rotate(20.4)">A</text><text class="cls-3" transform="matrix(0.87, 0.49, -0.49, 0.87, 328.39, 104.62)">D</text><text class="cls-3" transform="matrix(0.79, 0.61, -0.61, 0.79, 348.39, 115.49)">A</text><text class="cls-3" transform="matrix(0.69, 0.73, -0.73, 0.69, 369.47, 131.55)">N</text><text class="cls-3" transform="translate(387.37 151.05) rotate(52.73)">I</text><text class="cls-3" transform="matrix(0.52, 0.86, -0.86, 0.52, 393.14, 157.71)">A</text><text class="cls-3" transform="translate(406.64 180.74) rotate(65.64)"> </text><text class="cls-3" transform="matrix(0.31, 0.95, -0.95, 0.31, 411.95, 191.58)">E</text><text class="cls-3" transform="matrix(0.17, 0.99, -0.99, 0.17, 419.28, 213.09)">U</text><text class="cls-3" transform="translate(423.69 238.61) rotate(88.78)">R</text><text class="cls-3" transform="translate(424.56 261.61) rotate(97.64)">O</text><text class="cls-3" transform="matrix(-0.29, 0.96, -0.96, -0.29, 420.55, 290.51)">P</text><text class="cls-3" transform="translate(414.19 312.13) rotate(114.61)">E</text><text class="cls-3" transform="translate(404.94 332.95) rotate(123.19)">A</text><text class="cls-3" transform="matrix(-0.64, 0.77, -0.77, -0.64, 390.04, 355.1)"> </text><text class="cls-3" transform="translate(382.21 364.53) rotate(134.14)"> </text><text class="cls-3" transform="matrix(-0.75, 0.66, -0.66, -0.75, 373.7, 373.37)"> </text><text class="cls-3" transform="matrix(-0.79, 0.61, -0.61, -0.79, 364.56, 381.55)"> </text><text class="cls-3" transform="translate(354.87 389.01) rotate(146.86)"> </text><text class="cls-3" transform="translate(345.3 396.24) rotate(154.69)">M</text><text class="cls-3" transform="matrix(-0.95, 0.31, -0.31, -0.95, 314.77, 409.89)">I</text><text class="cls-3" transform="matrix(-0.97, 0.24, -0.24, -0.97, 306.21, 412.75)"> </text><text class="cls-3" transform="translate(294.66 416.17) rotate(172.55)">C</text><text class="cls-3" transform="translate(268.28 419.21) rotate(178.68)">I</text><text class="cls-3" transform="translate(259.47 419.94) rotate(-175.33)">U</text><text class="cls-3" transform="matrix(-0.97, -0.23, 0.23, -0.97, 233.69, 417.91)">D</text><text class="cls-3" transform="matrix(-0.93, -0.37, 0.37, -0.93, 211.47, 412.93)">A</text><text class="cls-3" transform="translate(186.86 403.18) rotate(-149.36)">D</text><text class="cls-3" transform="translate(167.09 391.84) rotate(-141.14)">A</text><text class="cls-3" transform="matrix(-0.67, -0.74, 0.74, -0.67, 146.39, 375.3)">N</text><text class="cls-3" transform="translate(128.96 355.41) rotate(-125.95)">I</text><text class="cls-3" transform="translate(123.33 348.6) rotate(-119.78)">A</text><text class="cls-3" transform="translate(110.39 325.29) rotate(-113.04)"> </text><text class="cls-3" transform="translate(105.32 314.29) rotate(-106.89)">E</text><text class="cls-3" transform="translate(98.48 292.61) rotate(-98.41)">U</text><text class="cls-3" transform="translate(94.49 267.01) rotate(-89.07)">R</text><text class="cls-3" transform="matrix(0.16, -0.99, 0.99, 0.16, 94.32, 244)">O</text><text class="cls-3" transform="translate(99.01 215.2) rotate(-71.98)">P</text><text class="cls-3" transform="matrix(0.44, -0.9, 0.9, 0.44, 105.88, 193.71)">E</text><text class="cls-3" transform="translate(115.6 173.14) rotate(-55.49)">A</text><text class="cls-3" transform="translate(131.02 151.33) rotate(-48.78)"> </text><circle class="cls-4" cx="139.41" cy="118.49" r="9.34"/><circle class="cls-4" cx="376.2" cy="386.05" r="9.34"/></svg>