<svg id="Capa_1" data-name="Capa 1" xmlns="http://www.w3.org/2000/svg" viewBox="0 0 501.48 509.44"><defs><style>.cls-1{fill:#6d6d6f;}.cls-2,.cls-3{fill:#f7f6f8;}.cls-3{font-size:40.53px;font-family:Kiona-Regular, Kiona;}.cls-4{fill:#decbc6;}</style></defs><rect class="cls-1" width="501.48" height="509.44"/><path class="cls-2" d="M261.15,347.47a90.73,90.73,0,0,1-47-12.83,94.95,94.95,0,0,1-46.76-82.12,92.87,92.87,0,0,1,12.54-47.34,94.57,94.57,0,0,1,34.22-34.5,92.32,92.32,0,0,1,84.83-4.7,96.91,96.91,0,0,1,31.8,23l-10,8.84a80.54,80.54,0,0,0-26.94-20,79.33,79.33,0,0,0-73.14,3.85,82.08,82.08,0,0,0-29.51,29.79,82.28,82.28,0,0,0,0,82.13,82.1,82.1,0,0,0,29.51,29.8,79.75,79.75,0,0,0,75.14,3,82.89,82.89,0,0,0,28.08-22.24l10.27,8a93,93,0,0,1-32.51,26.09A91.57,91.57,0,0,1,261.15,347.47Z"/><text class="cls-3" transform="matrix(0.89, -0.45, 0.45, 0.89, 161.51, 116.43)">M</text><text class="cls-3" transform="matrix(0.94, -0.33, 0.33, 0.94, 191.73, 102.06)">I</text><text class="cls-3" transform="translate(200.22 99.01) rotate(-15.48)"> </text><text class="cls-3" transform="matrix(0.99, -0.15, 0.15, 0.99, 211.69, 95.31)">C</text><text class="cls-3" transform="matrix(1, -0.05, 0.05, 1, 237.98, 91.67)">I</text><text class="cls-3" transform="translate(246.76 90.74) rotate(3.34)">U</text><text class="cls-3" transform="translate(272.59 92.16) rotate(12.1)">D</text><text class="cls-3" transform="translate(294.92 96.62) rotate(20.4)">A</text><text class="cls-3" transform="matrix(0.87, 0.49, -0.49, 0.87, 319.79, 105.81)">D</text><text class="cls-3" transform="matrix(0.79, 0.61, -0.61, 0.79, 339.79, 116.68)">A</text><text class="cls-3" transform="matrix(0.69, 0.73, -0.73, 0.69, 360.86, 132.73)">N</text><text class="cls-3" transform="translate(378.76 152.24) rotate(52.73)">I</text><text class="cls-3" transform="matrix(0.52, 0.86, -0.86, 0.52, 384.54, 158.9)">A</text><text class="cls-3" transform="translate(398.03 181.93) rotate(65.64)"> </text><text class="cls-3" transform="matrix(0.31, 0.95, -0.95, 0.31, 403.35, 192.77)">E</text><text class="cls-3" transform="matrix(0.17, 0.99, -0.99, 0.17, 410.68, 214.28)">U</text><text class="cls-3" transform="translate(415.09 239.8) rotate(88.78)">R</text><text class="cls-3" transform="translate(415.96 262.8) rotate(97.64)">O</text><text class="cls-3" transform="matrix(-0.29, 0.96, -0.96, -0.29, 411.95, 291.7)">P</text><text class="cls-3" transform="translate(405.59 313.32) rotate(114.61)">E</text><text class="cls-3" transform="translate(396.34 334.14) rotate(123.19)">A</text><text class="cls-3" transform="matrix(-0.64, 0.77, -0.77, -0.64, 381.44, 356.29)"> </text><text class="cls-3" transform="translate(373.61 365.72) rotate(134.14)"> </text><text class="cls-3" transform="matrix(-0.75, 0.66, -0.66, -0.75, 365.1, 374.55)"> </text><text class="cls-3" transform="matrix(-0.79, 0.61, -0.61, -0.79, 355.96, 382.74)"> </text><text class="cls-3" transform="translate(346.27 390.2) rotate(146.86)"> </text><text class="cls-3" transform="translate(336.7 397.43) rotate(154.69)">M</text><text class="cls-3" transform="matrix(-0.95, 0.31, -0.31, -0.95, 306.17, 411.08)">I</text><text class="cls-3" transform="matrix(-0.97, 0.24, -0.24, -0.97, 297.61, 413.93)"> </text><text class="cls-3" transform="translate(286.05 417.36) rotate(172.55)">C</text><text class="cls-3" transform="translate(259.68 420.4) rotate(178.68)">I</text><text class="cls-3" transform="translate(250.87 421.13) rotate(-175.33)">U</text><text class="cls-3" transform="matrix(-0.97, -0.23, 0.23, -0.97, 225.09, 419.1)">D</text><text class="cls-3" transform="matrix(-0.93, -0.37, 0.37, -0.93, 202.87, 414.12)">A</text><text class="cls-3" transform="translate(178.26 404.37) rotate(-149.36)">D</text><text class="cls-3" transform="translate(158.49 393.03) rotate(-141.14)">A</text><text class="cls-3" transform="matrix(-0.67, -0.74, 0.74, -0.67, 137.79, 376.48)">N</text><text class="cls-3" transform="translate(120.36 356.6) rotate(-125.95)">I</text><text class="cls-3" transform="translate(114.73 349.79) rotate(-119.78)">A</text><text class="cls-3" transform="translate(101.78 326.48) rotate(-113.04)"> </text><text class="cls-3" transform="translate(96.71 315.48) rotate(-106.89)">E</text><text class="cls-3" transform="translate(89.88 293.79) rotate(-98.41)">U</text><text class="cls-3" transform="translate(85.89 268.2) rotate(-89.07)">R</text><text class="cls-3" transform="matrix(0.16, -0.99, 0.99, 0.16, 85.72, 245.19)">O</text><text class="cls-3" transform="translate(90.4 216.39) rotate(-71.98)">P</text><text class="cls-3" transform="matrix(0.44, -0.9, 0.9, 0.44, 97.27, 194.9)">E</text><text class="cls-3" transform="translate(107 174.33) rotate(-55.49)">A</text><text class="cls-3" transform="translate(122.42 152.52) rotate(-48.78)"> </text><circle class="cls-4" cx="130.81" cy="119.68" r="9.34"/><circle class="cls-4" cx="367.6" cy="387.24" r="9.34"/></svg>