<svg id="Capa_1" data-name="Capa 1" xmlns="http://www.w3.org/2000/svg" viewBox="0 0 501.48 509.44"><defs><style>.cls-1{fill:#546370;stroke:#546370;stroke-width:2px;}.cls-1,.cls-2{stroke-miterlimit:10;}.cls-2{font-size:40.53px;fill:#6d6d6f;stroke:#6d6d6f;stroke-width:0.2px;font-family:Kiona-Regular, Kiona;}.cls-3{fill:#decbc6;}</style></defs><path class="cls-1" d="M254.36,335.25a90.76,90.76,0,0,1-47.05-12.83,95,95,0,0,1-46.76-82.12A92.78,92.78,0,0,1,173.1,193a94.55,94.55,0,0,1,34.21-34.5,92.32,92.32,0,0,1,84.83-4.7,96.91,96.91,0,0,1,31.8,23l-10,8.84a80.67,80.67,0,0,0-26.95-20,79.33,79.33,0,0,0-73.14,3.85,82,82,0,0,0-29.51,29.8,82.26,82.26,0,0,0,0,82.12,82.1,82.1,0,0,0,29.51,29.8,79.75,79.75,0,0,0,75.14,3,82.69,82.69,0,0,0,28.08-22.24l10.27,8A92.87,92.87,0,0,1,294.85,326,91.57,91.57,0,0,1,254.36,335.25Z"/><text class="cls-2" transform="matrix(0.89, -0.45, 0.45, 0.89, 154.72, 104.21)">M</text><text class="cls-2" transform="matrix(0.94, -0.33, 0.33, 0.94, 184.94, 89.84)">I</text><text class="cls-2" transform="translate(193.43 86.79) rotate(-15.48)"> </text><text class="cls-2" transform="matrix(0.99, -0.15, 0.15, 0.99, 204.91, 83.09)">C</text><text class="cls-2" transform="matrix(1, -0.05, 0.05, 1, 231.19, 79.45)">I</text><text class="cls-2" transform="translate(239.97 78.52) rotate(3.34)">U</text><text class="cls-2" transform="translate(265.8 79.94) rotate(12.1)">D</text><text class="cls-2" transform="translate(288.13 84.4) rotate(20.4)">A</text><text class="cls-2" transform="matrix(0.87, 0.49, -0.49, 0.87, 313, 93.59)">D</text><text class="cls-2" transform="matrix(0.79, 0.61, -0.61, 0.79, 333, 104.46)">A</text><text class="cls-2" transform="matrix(0.69, 0.73, -0.73, 0.69, 354.07, 120.52)">N</text><text class="cls-2" transform="translate(371.98 140.02) rotate(52.73)">I</text><text class="cls-2" transform="matrix(0.52, 0.86, -0.86, 0.52, 377.75, 146.68)">A</text><text class="cls-2" transform="translate(391.25 169.71) rotate(65.64)"> </text><text class="cls-2" transform="matrix(0.31, 0.95, -0.95, 0.31, 396.56, 180.55)">E</text><text class="cls-2" transform="matrix(0.17, 0.99, -0.99, 0.17, 403.89, 202.06)">U</text><text class="cls-2" transform="translate(408.3 227.58) rotate(88.78)">R</text><text class="cls-2" transform="translate(409.17 250.58) rotate(97.64)">O</text><text class="cls-2" transform="matrix(-0.29, 0.96, -0.96, -0.29, 405.16, 279.48)">P</text><text class="cls-2" transform="translate(398.8 301.1) rotate(114.61)">E</text><text class="cls-2" transform="translate(389.55 321.92) rotate(123.19)">A</text><text class="cls-2" transform="matrix(-0.64, 0.77, -0.77, -0.64, 374.65, 344.07)"> </text><text class="cls-2" transform="translate(366.82 353.5) rotate(134.14)"> </text><text class="cls-2" transform="matrix(-0.75, 0.66, -0.66, -0.75, 358.31, 362.33)"> </text><text class="cls-2" transform="matrix(-0.79, 0.61, -0.61, -0.79, 349.17, 370.52)"> </text><text class="cls-2" transform="translate(339.48 377.98) rotate(146.86)"> </text><text class="cls-2" transform="translate(329.91 385.21) rotate(154.69)">M</text><text class="cls-2" transform="matrix(-0.95, 0.31, -0.31, -0.95, 299.38, 398.86)">I</text><text class="cls-2" transform="matrix(-0.97, 0.24, -0.24, -0.97, 290.82, 401.72)"> </text><text class="cls-2" transform="translate(279.27 405.14) rotate(172.55)">C</text><text class="cls-2" transform="translate(252.89 408.18) rotate(178.68)">I</text><text class="cls-2" transform="translate(244.08 408.91) rotate(-175.33)">U</text><text class="cls-2" transform="matrix(-0.97, -0.23, 0.23, -0.97, 218.3, 406.88)">D</text><text class="cls-2" transform="matrix(-0.93, -0.37, 0.37, -0.93, 196.08, 401.9)">A</text><text class="cls-2" transform="translate(171.47 392.15) rotate(-149.36)">D</text><text class="cls-2" transform="translate(151.7 380.81) rotate(-141.14)">A</text><text class="cls-2" transform="matrix(-0.67, -0.74, 0.74, -0.67, 131, 364.27)">N</text><text class="cls-2" transform="translate(113.57 344.38) rotate(-125.95)">I</text><text class="cls-2" transform="translate(107.94 337.57) rotate(-119.78)">A</text><text class="cls-2" transform="translate(95 314.26) rotate(-113.04)"> </text><text class="cls-2" transform="translate(89.92 303.26) rotate(-106.89)">E</text><text class="cls-2" transform="translate(83.09 281.58) rotate(-98.41)">U</text><text class="cls-2" transform="translate(79.1 255.98) rotate(-89.07)">R</text><text class="cls-2" transform="matrix(0.16, -0.99, 0.99, 0.16, 78.93, 232.97)">O</text><text class="cls-2" transform="translate(83.62 204.17) rotate(-71.98)">P</text><text class="cls-2" transform="matrix(0.44, -0.9, 0.9, 0.44, 90.49, 182.68)">E</text><text class="cls-2" transform="translate(100.21 162.11) rotate(-55.49)">A</text><text class="cls-2" transform="translate(115.63 140.3) rotate(-48.78)"> </text><circle class="cls-3" cx="124.02" cy="107.46" r="9.34"/><circle class="cls-3" cx="360.81" cy="375.02" r="9.34"/></svg>